<svg width="16.000000" height="26.000000" viewBox="0 0 16 26" fill="none" xmlns="http://www.w3.org/2000/svg" xmlns:xlink="http://www.w3.org/1999/xlink">
	<desc>
			Created with Pixso.
	</desc>
	<defs/>
	<path id="Vector" d="M15 7.14C15.02 7 15.01 6.85 14.97 6.71C14.93 6.58 14.86 6.45 14.77 6.34C14.67 6.23 14.55 6.14 14.42 6.08C14.29 6.03 14.14 6 14 6L14 4C14 3.73 13.89 3.48 13.7 3.29C13.52 3.1 13.26 3 13 3L11 3L11 2.41L11.71 1.71C11.89 1.52 12 1.27 12 1C12 0.73 11.89 0.48 11.71 0.29C11.52 0.1 11.26 0 11 0C10.73 0 10.47 0.1 10.29 0.29L9.29 1.29C9.19 1.38 9.12 1.49 9.07 1.62C9.02 1.74 9 1.87 9 2L9 3L2 3C1.73 3 1.48 3.1 1.29 3.29C1.1 3.48 1 3.73 1 4L1 6C0.85 6 0.71 6.03 0.58 6.09C0.45 6.14 0.33 6.23 0.24 6.34C0.14 6.45 0.07 6.58 0.03 6.71C-0.01 6.85 -0.02 7 0.01 7.14L2.01 21.07L2.01 24C2.01 24.26 2.11 24.52 2.3 24.71C2.49 24.89 2.74 25 3.01 25L12.01 25C12.27 25 12.53 24.89 12.71 24.71C12.9 24.52 13.01 24.26 13.01 24L13.01 21.07L15 7.14ZM2.15 8L12.85 8L11.13 20L3.87 20L2.15 8ZM3 5L12 5L12 6L3 6L3 5ZM11 23L4 23L4 22L11 22L11 23Z" fill="#FFB577" fill-opacity="1.000000" fill-rule="nonzero"/>
</svg>
