<svg width="15.000000" height="14.000000" viewBox="0 0 15 14" fill="none" xmlns="http://www.w3.org/2000/svg" xmlns:xlink="http://www.w3.org/1999/xlink">
	<desc>
			Created with Pixso.
	</desc>
	<defs/>
	<path id="Vector" d="M14.44 6.72C14.44 2.73 11.21 -0.51 7.22 -0.51C3.23 -0.51 0 2.73 0 6.72C0 10.32 2.64 13.31 6.09 13.85L6.09 8.8L4.25 8.8L4.25 6.72L6.09 6.72L6.09 5.12C6.09 3.31 7.17 2.31 8.82 2.31C9.61 2.31 10.43 2.46 10.43 2.46L10.43 4.23L9.52 4.23C8.63 4.23 8.35 4.79 8.35 5.36L8.35 6.72L10.35 6.72L10.03 8.8L8.35 8.8L8.35 13.85C11.8 13.31 14.44 10.32 14.44 6.72Z" fill="#FFFFFF" fill-opacity="1.000000" fill-rule="nonzero"/>
</svg>
