<svg width="25.000000" height="22.000000" viewBox="0 0 25 22" fill="none" xmlns="http://www.w3.org/2000/svg" xmlns:xlink="http://www.w3.org/1999/xlink">
	<desc>
			Created with Pixso.
	</desc>
	<defs/>
	<path id="Vector" d="M16.4 21.15L16.4 17.77C16.4 17.54 16.32 17.33 16.17 17.17C16.03 17.01 15.83 16.92 15.62 16.92L0.78 16.92C0.57 16.92 0.37 17.01 0.22 17.17C0.08 17.33 0 17.54 0 17.77L0 21.15C0 21.37 0.08 21.59 0.22 21.75C0.37 21.91 0.57 22 0.78 22L15.62 22C15.83 22 16.03 21.91 16.17 21.75C16.32 21.59 16.4 21.37 16.4 21.15ZM14.84 20.3L1.56 20.3L1.56 18.61L14.84 18.61L14.84 20.3ZM2.34 14.39C2.13 14.39 1.93 14.47 1.79 14.63C1.64 14.79 1.56 15.01 1.56 15.23C1.56 15.45 1.64 15.67 1.79 15.83C1.93 15.99 2.13 16.08 2.34 16.08L14.06 16.08C14.26 16.08 14.46 15.99 14.61 15.83C14.76 15.67 14.84 15.45 14.84 15.23C14.84 15.01 14.76 14.79 14.61 14.63C14.46 14.47 14.26 14.39 14.06 14.39L2.34 14.39ZM0.78 13.54L15.62 13.54C15.83 13.54 16.03 13.45 16.17 13.29C16.32 13.13 16.4 12.92 16.4 12.69C16.4 12.63 16.31 6.77 8.2 6.77C0.09 6.77 0 12.63 0 12.69C0 12.92 0.08 13.13 0.22 13.29C0.37 13.45 0.57 13.54 0.78 13.54ZM8.2 8.47C12.91 8.47 14.28 10.61 14.68 11.85L1.72 11.85C2.12 10.61 3.48 8.47 8.2 8.47ZM24.21 5.08L20.19 5.08L19.52 0.72C19.5 0.61 19.47 0.5 19.41 0.4C19.36 0.31 19.29 0.22 19.2 0.16C19.12 0.09 19.02 0.04 18.92 0.02C18.82 -0.01 18.72 -0.01 18.61 0.01C18.51 0.02 18.41 0.07 18.33 0.13C18.24 0.19 18.16 0.26 18.1 0.36C18.04 0.45 18 0.55 17.98 0.66C17.96 0.77 17.96 0.88 17.97 0.99L18.6 5.08L17.96 5.08C17.86 5.08 17.75 5.11 17.65 5.15C17.56 5.2 17.47 5.26 17.4 5.35C17.32 5.43 17.27 5.53 17.23 5.64C17.19 5.75 17.18 5.86 17.18 5.98L17.96 21.2C17.98 21.41 18.06 21.62 18.21 21.76C18.35 21.91 18.55 22 18.75 22L23.43 22C23.63 22 23.82 21.91 23.97 21.76C24.11 21.62 24.2 21.41 24.21 21.2L24.99 5.98C25 5.86 24.98 5.75 24.95 5.64C24.91 5.53 24.85 5.43 24.78 5.35C24.71 5.27 24.62 5.2 24.52 5.15C24.43 5.11 24.32 5.08 24.21 5.08ZM22.69 20.3L19.48 20.3L18.79 6.77L23.39 6.77L22.69 20.3Z" fill="#FFB577" fill-opacity="1.000000" fill-rule="nonzero"/>
</svg>
