<svg width="25.000000" height="25.000000" viewBox="0 0 25 25" fill="none" xmlns="http://www.w3.org/2000/svg" xmlns:xlink="http://www.w3.org/1999/xlink">
	<desc>
			Created with Pixso.
	</desc>
	<defs/>
	<path id="Vector" d="M19.71 16.76L17.26 14.84C17.43 14.11 17.27 13.41 16.78 12.81C15.8 11.6 15.59 10.17 15.36 8.65C15.03 6.46 14.66 3.98 11.91 1.81C10.38 0.6 8.82 0 7.26 0C4.38 0 2.57 2.04 2.5 2.12C2.38 2.25 -0.46 5.46 0.06 9.28C0.38 11.61 1.87 13.63 4.49 15.29L4.54 15.32C4.75 15.42 9.74 17.89 11.23 18.35C11.9 18.56 12.45 18.66 12.96 18.66C13.41 18.66 13.82 18.58 14.2 18.43L16.95 20.16C16.84 20.99 16.8 22.81 18.34 23.66C18.74 23.88 19.19 23.99 19.64 24C20.29 24 20.93 23.76 21.43 23.31C22.04 22.75 22.32 21.98 22.22 21.2C22.71 21.08 23.33 20.82 23.7 20.26C23.94 19.9 24.16 19.26 23.82 18.31C23.11 16.37 20.97 16.41 19.71 16.76ZM15.06 16.11L15 16.2C14.3 17.37 13.5 17.5 12.96 17.5C12.57 17.5 12.12 17.42 11.57 17.25C10.22 16.83 5.48 14.49 5.08 14.29C2.78 12.83 1.47 11.1 1.2 9.13C0.75 5.85 3.33 2.93 3.36 2.89C3.38 2.88 4.92 1.16 7.26 1.16C8.56 1.16 9.88 1.68 11.19 2.72C13.59 4.61 13.89 6.66 14.22 8.83C14.46 10.43 14.71 12.09 15.88 13.54C16.12 13.83 16.37 14.3 15.95 15.08C15.64 15.64 15.14 16.05 15.14 16.05L15.06 16.11ZM22.74 19.61C22.48 20.01 21.72 20.13 21.48 20.14C21.39 20.15 21.3 20.17 21.21 20.22C21.13 20.27 21.07 20.33 21.02 20.41C20.97 20.49 20.94 20.58 20.93 20.68C20.92 20.77 20.93 20.86 20.97 20.95C21.3 21.74 20.86 22.26 20.66 22.44C20.26 22.81 19.56 23.01 18.9 22.64C17.69 21.98 18.14 20.04 18.15 20.02C18.18 19.9 18.17 19.78 18.13 19.66C18.08 19.55 18 19.45 17.9 19.39L15.26 17.73C15.52 17.48 15.75 17.19 15.94 16.89C16.26 16.6 16.54 16.28 16.78 15.93L19.23 17.86C19.31 17.92 19.4 17.96 19.49 17.98C19.59 17.99 19.68 17.98 19.78 17.95C19.87 17.92 22.17 17.14 22.73 18.71C22.88 19.1 22.88 19.41 22.74 19.61Z" fill="#FFB577" fill-opacity="1.000000" fill-rule="nonzero"/>
	<path id="Vector" d="M17.26 14.84C17.43 14.11 17.27 13.41 16.78 12.81C15.8 11.6 15.59 10.17 15.36 8.65C15.03 6.46 14.66 3.98 11.91 1.81C10.38 0.6 8.82 0 7.26 0C4.38 0 2.57 2.04 2.5 2.12C2.38 2.25 -0.46 5.46 0.06 9.28C0.38 11.61 1.87 13.63 4.49 15.29L4.54 15.32C4.75 15.42 9.74 17.89 11.23 18.35C11.9 18.56 12.45 18.66 12.96 18.66C13.41 18.66 13.82 18.58 14.2 18.43L16.95 20.16C16.84 20.99 16.8 22.81 18.34 23.66C18.74 23.88 19.19 23.99 19.64 24C20.29 24 20.93 23.76 21.43 23.31C22.04 22.75 22.32 21.98 22.22 21.2C22.71 21.08 23.33 20.82 23.7 20.26C23.94 19.9 24.16 19.26 23.82 18.31C23.11 16.37 20.97 16.41 19.71 16.76L17.26 14.84ZM19.82 16.21Q21.91 15.7 23.11 16.51Q23.89 17.04 24.29 18.14Q24.65 19.14 24.4 19.95Q24.3 20.26 24.11 20.54Q24.04 20.65 23.96 20.75Q23.51 21.29 22.74 21.56Q22.74 22.05 22.59 22.48Q22.36 23.14 21.77 23.68Q21.32 24.08 20.8 24.28Q20.26 24.5 19.64 24.5Q19.23 24.49 18.85 24.4Q18.46 24.3 18.1 24.1Q17.44 23.74 17.04 23.18Q16.27 22.14 16.42 20.42L14.14 18.98L14.14 18.98Q13.58 19.16 12.96 19.16Q12.14 19.16 11.08 18.83Q9.43 18.32 4.32 15.76L4.31 15.76L4.23 15.72L4.22 15.71Q0.75 13.52 -0.17 10.53Q-0.35 9.96 -0.44 9.35Q-0.62 8.03 -0.41 6.77Q0.02 4.14 2.13 1.79Q3.03 0.75 4.16 0.18Q5.54 -0.5 7.26 -0.5Q7.43 -0.5 7.6 -0.5Q9.95 -0.37 12.21 1.41Q12.33 1.5 12.43 1.59Q15.15 3.9 15.85 8.58Q16.28 11.39 17.17 12.5Q17.63 13.07 17.77 13.72Q17.87 14.16 17.81 14.63L19.82 16.21ZM15.06 16.11L15 16.2C14.3 17.37 13.5 17.5 12.96 17.5C12.57 17.5 12.12 17.42 11.57 17.25C10.22 16.83 5.48 14.49 5.08 14.29C2.78 12.83 1.47 11.1 1.2 9.13C0.75 5.85 3.33 2.93 3.36 2.89C3.38 2.88 4.92 1.16 7.26 1.16C8.56 1.16 9.88 1.68 11.19 2.72C13.59 4.61 13.89 6.66 14.22 8.83C14.46 10.43 14.71 12.09 15.88 13.54C16.12 13.83 16.37 14.3 15.95 15.08C15.64 15.64 15.14 16.05 15.14 16.05L15.06 16.11ZM14.82 15.66L14.68 15.78L14.58 15.94L14.58 15.94Q14.11 16.71 13.47 16.92Q13.23 17 12.96 17Q12.46 17 11.72 16.77Q10.41 16.36 5.32 13.85Q2.33 11.95 1.78 9.49Q1.73 9.28 1.7 9.06Q1.57 8.14 1.7 7.25Q2 5.14 3.73 3.23Q4.4 2.47 5.25 2.08Q6.15 1.66 7.26 1.66Q9.04 1.66 10.88 3.11Q13.12 4.88 13.73 8.9L13.73 8.9L13.73 8.9Q14.23 12.3 15.5 13.86Q15.6 13.99 15.64 14.14Q15.72 14.45 15.51 14.84Q15.26 15.29 14.82 15.66ZM21.46 19.64L21.46 19.65Q21.33 19.65 21.21 19.69Q21.08 19.72 20.96 19.79Q20.85 19.85 20.76 19.94Q20.66 20.03 20.59 20.15Q20.52 20.26 20.48 20.38Q20.44 20.5 20.43 20.63Q20.42 20.77 20.44 20.89Q20.46 21.02 20.51 21.14Q20.64 21.45 20.57 21.7Q20.51 21.9 20.32 22.07Q20.06 22.31 19.77 22.35Q19.47 22.39 19.14 22.2Q18.94 22.09 18.8 21.93Q18.33 21.36 18.63 20.14Q18.68 19.97 18.67 19.8Q18.65 19.64 18.59 19.48Q18.52 19.31 18.42 19.18Q18.31 19.06 18.16 18.97L16.03 17.62Q16.19 17.42 16.33 17.21Q16.55 17.01 16.75 16.79Q16.81 16.71 16.87 16.64L18.92 18.25Q19.04 18.35 19.18 18.4Q19.29 18.45 19.41 18.47Q19.54 18.49 19.68 18.48Q19.81 18.47 19.94 18.43Q21.35 17.92 21.95 18.41Q22.16 18.58 22.26 18.88Q22.39 19.23 22.33 19.34Q22.14 19.61 21.46 19.64L21.46 19.64ZM16.48 16.33C16.58 16.2 16.68 16.07 16.78 15.93L17.17 16.24L19.23 17.86C19.31 17.92 19.4 17.96 19.49 17.98C19.59 17.99 19.68 17.98 19.78 17.95C19.87 17.92 22.17 17.14 22.73 18.71C22.88 19.1 22.88 19.41 22.74 19.61C22.48 20.01 21.72 20.13 21.48 20.14C21.39 20.15 21.3 20.17 21.21 20.22C21.13 20.27 21.07 20.33 21.02 20.41C20.97 20.49 20.94 20.58 20.93 20.68C20.92 20.77 20.93 20.86 20.97 20.95C21.3 21.74 20.86 22.26 20.66 22.44C20.26 22.81 19.56 23.01 18.9 22.64C17.69 21.98 18.14 20.04 18.15 20.02C18.18 19.9 18.17 19.78 18.13 19.66C18.08 19.55 18 19.45 17.9 19.39L15.7 18L15.26 17.73C15.39 17.61 15.5 17.48 15.61 17.35C15.73 17.2 15.84 17.05 15.94 16.89C16.13 16.71 16.31 16.53 16.48 16.33Z" fill="#FFB577" fill-opacity="1.000000" fill-rule="evenodd"/>
</svg>
