<svg width="14.000000" height="14.000000" viewBox="0 0 14 14" fill="none" xmlns="http://www.w3.org/2000/svg" xmlns:xlink="http://www.w3.org/1999/xlink">
	<desc>
			Created with Pixso.
	</desc>
	<defs/>
	<path id="Vector" d="M6.25 0.79C8.18 0.79 8.41 0.8 9.17 0.84C9.88 0.87 10.26 0.99 10.51 1.08C10.85 1.21 11.09 1.37 11.34 1.62C11.59 1.88 11.75 2.12 11.88 2.45C11.98 2.71 12.1 3.09 12.13 3.79C12.16 4.55 12.17 4.78 12.17 6.71C12.17 8.64 12.16 8.87 12.13 9.63C12.1 10.33 11.98 10.71 11.88 10.97C11.75 11.3 11.59 11.55 11.34 11.8C11.09 12.05 10.85 12.21 10.51 12.34C10.26 12.43 9.87 12.55 9.17 12.58C8.41 12.62 8.18 12.63 6.25 12.63C4.32 12.63 4.1 12.62 3.34 12.58C2.63 12.55 2.25 12.43 2 12.34C1.66 12.21 1.42 12.05 1.17 11.8C0.91 11.54 0.76 11.3 0.63 10.97C0.53 10.71 0.41 10.33 0.38 9.63C0.35 8.87 0.34 8.64 0.34 6.71C0.34 4.78 0.35 4.55 0.38 3.79C0.41 3.09 0.53 2.71 0.63 2.45C0.76 2.12 0.92 1.87 1.17 1.62C1.42 1.37 1.66 1.21 2 1.08C2.25 0.99 2.63 0.87 3.34 0.84C4.1 0.8 4.32 0.79 6.25 0.79ZM6.25 -0.51C4.29 -0.51 4.05 -0.5 3.28 -0.46C2.51 -0.43 1.98 -0.31 1.53 -0.13C1.05 0.06 0.65 0.3 0.25 0.71C-0.16 1.11 -0.4 1.51 -0.59 1.98C-0.77 2.44 -0.89 2.97 -0.93 3.74C-0.96 4.51 -0.97 4.76 -0.97 6.72C-0.97 8.68 -0.96 8.92 -0.93 9.69C-0.89 10.46 -0.77 10.99 -0.59 11.44C-0.4 11.92 -0.16 12.32 0.25 12.73C0.65 13.13 1.05 13.37 1.52 13.56C1.98 13.73 2.51 13.86 3.28 13.89C4.05 13.93 4.29 13.94 6.25 13.94C8.21 13.94 8.46 13.93 9.23 13.89C10 13.86 10.52 13.73 10.98 13.56C11.45 13.37 11.86 13.13 12.26 12.73C12.66 12.32 12.91 11.92 13.09 11.45C13.27 10.99 13.39 10.46 13.43 9.69C13.46 8.92 13.47 8.68 13.47 6.72C13.47 4.76 13.46 4.51 13.43 3.74C13.39 2.97 13.27 2.45 13.09 1.99C12.91 1.51 12.67 1.11 12.26 0.71C11.86 0.31 11.46 0.06 10.99 -0.13C10.53 -0.3 10 -0.43 9.23 -0.46C8.46 -0.5 8.22 -0.51 6.25 -0.51Z" fill="#FFFFFF" fill-opacity="1.000000" fill-rule="nonzero"/>
	<path id="Vector" d="M6.25 3.01C4.21 3.01 2.54 4.67 2.54 6.72C2.54 8.76 4.21 10.43 6.25 10.43C8.3 10.43 9.96 8.76 9.96 6.72C9.96 4.67 8.3 3.01 6.25 3.01ZM6.25 9.12C4.93 9.12 3.85 8.04 3.85 6.72C3.85 5.39 4.93 4.31 6.25 4.31C7.58 4.31 8.66 5.39 8.66 6.72C8.66 8.04 7.58 9.12 6.25 9.12Z" fill="#FFFFFF" fill-opacity="1.000000" fill-rule="nonzero"/>
	<path id="Vector" d="M10.98 2.86C10.98 3.34 10.59 3.73 10.11 3.73C9.63 3.73 9.25 3.34 9.25 2.86C9.25 2.38 9.63 1.99 10.11 1.99C10.59 1.99 10.98 2.38 10.98 2.86Z" fill="#FFFFFF" fill-opacity="1.000000" fill-rule="nonzero"/>
</svg>
