<svg width="14.000000" height="14.000000" viewBox="0 0 14 14" fill="none" xmlns="http://www.w3.org/2000/svg" xmlns:xlink="http://www.w3.org/1999/xlink">
	<desc>
			Created with Pixso.
	</desc>
	<defs/>
	<path id="Vector" d="M12.93 -0.51L0.62 -0.51C0.03 -0.51 -0.45 -0.04 -0.45 0.53L-0.45 12.89C-0.45 13.47 0.03 13.94 0.62 13.94L12.93 13.94C13.52 13.94 14 13.47 14 12.9L14 0.53C14 -0.04 13.52 -0.51 12.93 -0.51ZM3.84 11.8L1.69 11.8L1.69 4.91L3.84 4.91L3.84 11.8ZM2.76 3.97C2.08 3.97 1.52 3.41 1.52 2.73C1.52 2.04 2.08 1.49 2.76 1.49C3.45 1.49 4.01 2.04 4.01 2.73C4.01 3.41 3.45 3.97 2.76 3.97ZM11.86 11.8L9.72 11.8L9.72 8.45C9.72 7.65 9.7 6.62 8.6 6.62C7.49 6.62 7.32 7.49 7.32 8.39L7.32 11.8L5.18 11.8L5.18 4.91L7.24 4.91L7.24 5.85L7.26 5.85C7.55 5.31 8.25 4.74 9.29 4.74C11.46 4.74 11.86 6.16 11.86 8.02L11.86 11.8Z" fill="#FFFFFF" fill-opacity="1.000000" fill-rule="nonzero"/>
</svg>
