<svg width="60.000000" height="59.000000" viewBox="0 0 60 59" fill="none" xmlns="http://www.w3.org/2000/svg" xmlns:xlink="http://www.w3.org/1999/xlink">
	<desc>
			Created with Pixso.
	</desc>
	<defs/>
	<path id="Play" d="M30 59C13.43 59 0 45.56 0 29C0 12.43 13.43 -1 30 -1C46.56 -1 60 12.43 60 29C59.98 45.56 46.56 58.98 30 59ZM42.63 28.04C42.42 27.62 42.08 27.28 41.67 27.08L41.67 27.07L24.52 18.5C23.47 17.97 22.18 18.4 21.65 19.45C21.5 19.76 21.42 20.09 21.42 20.42L21.42 37.57C21.42 38.75 22.38 39.71 23.57 39.71C23.9 39.71 24.23 39.63 24.52 39.48L41.67 30.91C42.73 30.39 43.16 29.1 42.63 28.04Z" fill="#FFFFFF" fill-opacity="1.000000" fill-rule="nonzero"/>
</svg>
