<svg width="21.000000" height="28.000000" viewBox="0 0 21 28" fill="none" xmlns="http://www.w3.org/2000/svg" xmlns:xlink="http://www.w3.org/1999/xlink">
	<desc>
			Created with Pixso.
	</desc>
	<defs/>
	<path id="Vector" d="M20.08 4.28L20.08 0.69C20.08 0.53 20.04 0.38 19.95 0.24C19.87 0.1 19.75 -0.01 19.61 -0.09C19.47 -0.17 19.32 -0.21 19.16 -0.21C18.99 -0.21 18.84 -0.17 18.7 -0.09L17.64 0.54L16.58 -0.09C16.44 -0.18 16.27 -0.22 16.11 -0.22C15.94 -0.22 15.78 -0.17 15.64 -0.09L14.58 0.54L13.53 -0.09C13.38 -0.18 13.22 -0.22 13.05 -0.22C12.89 -0.22 12.72 -0.18 12.58 -0.09L11.53 0.54L10.47 -0.09C10.33 -0.18 10.17 -0.22 10 -0.22C9.84 -0.22 9.67 -0.18 9.53 -0.09L8.48 0.54L7.42 -0.09C7.28 -0.17 7.11 -0.22 6.95 -0.22C6.78 -0.22 6.62 -0.17 6.48 -0.09L5.42 0.54L4.37 -0.09C4.23 -0.18 4.06 -0.22 3.9 -0.22C3.73 -0.22 3.57 -0.18 3.43 -0.09L2.37 0.54L1.32 -0.09C1.18 -0.17 1.02 -0.21 0.86 -0.21C0.7 -0.21 0.54 -0.17 0.4 -0.09C0.26 -0.01 0.14 0.1 0.06 0.24C-0.02 0.38 -0.07 0.53 -0.07 0.69L-0.07 4.28C-1.28 10.38 -1.28 16.66 -0.07 22.76L-0.07 26.35C-0.07 26.51 -0.02 26.66 0.06 26.8C0.14 26.94 0.26 27.05 0.4 27.13C0.54 27.21 0.7 27.25 0.86 27.25C1.02 27.25 1.18 27.21 1.32 27.13L2.38 26.5L3.43 27.13C3.58 27.22 3.74 27.26 3.91 27.26C4.07 27.26 4.24 27.22 4.38 27.13L5.43 26.5L6.49 27.13C6.63 27.22 6.79 27.26 6.96 27.26C7.13 27.26 7.29 27.22 7.43 27.13L8.49 26.5L9.54 27.13C9.68 27.22 9.85 27.26 10.01 27.26C10.18 27.26 10.34 27.22 10.48 27.13L11.54 26.5L12.6 27.13C12.74 27.21 12.9 27.26 13.07 27.26C13.23 27.26 13.4 27.21 13.54 27.13L14.59 26.5L15.65 27.13C15.79 27.22 15.95 27.26 16.12 27.26C16.28 27.26 16.45 27.22 16.59 27.13L17.64 26.5L18.7 27.13C18.84 27.21 18.99 27.25 19.15 27.25C19.32 27.25 19.47 27.21 19.61 27.13C19.75 27.05 19.87 26.94 19.95 26.8C20.04 26.66 20.08 26.51 20.08 26.35L20.08 22.76C21.3 16.66 21.3 10.38 20.08 4.28ZM1.76 2.31L1.9 2.39C2.04 2.48 2.21 2.53 2.37 2.53C2.54 2.53 2.7 2.48 2.84 2.39L3.9 1.76L4.95 2.39C5.09 2.48 5.26 2.53 5.42 2.53C5.59 2.53 5.75 2.48 5.89 2.39L6.95 1.76L8.01 2.39C8.15 2.48 8.31 2.52 8.48 2.52C8.64 2.52 8.81 2.48 8.95 2.39L10 1.76L11.06 2.39C11.2 2.48 11.36 2.53 11.53 2.53C11.69 2.53 11.86 2.48 12 2.39L13.05 1.76L14.11 2.39C14.25 2.48 14.42 2.53 14.58 2.53C14.75 2.53 14.91 2.48 15.06 2.39L16.11 1.76L17.17 2.4C17.31 2.48 17.47 2.53 17.64 2.53C17.8 2.53 17.97 2.48 18.11 2.4L18.25 2.31L18.25 3.44L1.76 3.44L1.76 2.31ZM18.25 24.73L18.12 24.65C17.97 24.56 17.81 24.51 17.64 24.51C17.48 24.51 17.31 24.56 17.17 24.65L16.12 25.28L15.06 24.65C14.92 24.56 14.76 24.51 14.59 24.51C14.43 24.51 14.26 24.56 14.12 24.65L13.07 25.28L12.01 24.65C11.87 24.56 11.7 24.52 11.54 24.52C11.37 24.52 11.21 24.56 11.07 24.65L10.01 25.28L8.96 24.65C8.82 24.56 8.65 24.51 8.49 24.51C8.32 24.51 8.16 24.56 8.02 24.65L6.96 25.28L5.9 24.65C5.76 24.56 5.6 24.52 5.43 24.52C5.27 24.52 5.1 24.56 4.96 24.65L3.91 25.28L2.85 24.64C2.7 24.56 2.54 24.51 2.38 24.51C2.21 24.51 2.05 24.56 1.9 24.64L1.76 24.73L1.76 23.6L18.25 23.6L18.25 24.73ZM18.41 21.77L1.6 21.77C0.6 16.31 0.6 10.73 1.6 5.28L18.41 5.28C19.42 10.73 19.42 16.31 18.41 21.77Z" fill="#FFB577" fill-opacity="1.000000" fill-rule="nonzero"/>
	<path id="Vector" d="M14.07 10.82C13.8 10.52 13.47 10.28 13.1 10.11C12.73 9.94 12.33 9.86 11.93 9.86L11.5 9.86C11.3 9.86 11.11 9.88 10.92 9.92L10.92 8.48C10.92 8.24 10.83 8.01 10.66 7.83C10.48 7.66 10.25 7.57 10.01 7.57C9.76 7.57 9.53 7.66 9.36 7.83C9.19 8.01 9.09 8.24 9.09 8.48L9.09 9.92C8.9 9.88 8.71 9.86 8.52 9.86L8.09 9.86C7.68 9.86 7.28 9.94 6.91 10.11C6.54 10.28 6.21 10.52 5.94 10.82C5.68 11.13 5.47 11.49 5.35 11.87C5.23 12.26 5.2 12.67 5.25 13.07L5.68 16.51C5.77 17.2 6.1 17.84 6.63 18.3C7.15 18.76 7.82 19.02 8.52 19.02C9.04 19.02 9.56 18.87 10.01 18.59C10.45 18.87 10.97 19.02 11.5 19.02C12.19 19.02 12.87 18.76 13.39 18.3C13.91 17.84 14.25 17.2 14.34 16.51L14.77 13.07C14.82 12.67 14.78 12.26 14.66 11.87C14.54 11.48 14.34 11.13 14.07 10.82ZM12.95 12.85L12.52 16.28C12.49 16.53 12.36 16.76 12.18 16.93C11.99 17.09 11.75 17.18 11.5 17.18C11.35 17.18 11.2 17.15 11.06 17.08C10.93 17.02 10.81 16.93 10.71 16.81C10.63 16.71 10.52 16.62 10.4 16.57C10.27 16.51 10.14 16.48 10.01 16.48C9.87 16.48 9.74 16.51 9.62 16.57C9.5 16.62 9.39 16.71 9.3 16.81C9.21 16.93 9.09 17.02 8.95 17.08C8.82 17.15 8.67 17.18 8.52 17.18C8.27 17.18 8.03 17.09 7.84 16.93C7.65 16.76 7.53 16.53 7.5 16.28L7.07 12.85C7.05 12.7 7.06 12.56 7.11 12.42C7.15 12.28 7.22 12.15 7.32 12.04C7.41 11.93 7.53 11.84 7.66 11.78C7.8 11.72 7.94 11.69 8.09 11.69L8.52 11.69C8.67 11.69 8.82 11.72 8.95 11.79C9.09 11.85 9.21 11.95 9.3 12.06C9.39 12.16 9.5 12.24 9.62 12.29C9.74 12.35 9.87 12.38 10.01 12.38C10.14 12.38 10.27 12.35 10.39 12.29C10.51 12.24 10.62 12.16 10.71 12.06C10.81 11.95 10.93 11.85 11.06 11.79C11.2 11.72 11.35 11.69 11.5 11.69L11.93 11.69C12.07 11.69 12.22 11.72 12.35 11.78C12.48 11.84 12.6 11.93 12.7 12.04C12.79 12.15 12.87 12.28 12.91 12.42C12.95 12.56 12.97 12.7 12.95 12.85Z" fill="#FFB577" fill-opacity="1.000000" fill-rule="nonzero"/>
</svg>
