<svg width="14.000000" height="12.000000" viewBox="0 0 14 12" fill="none" xmlns="http://www.w3.org/2000/svg" xmlns:xlink="http://www.w3.org/1999/xlink">
	<desc>
			Created with Pixso.
	</desc>
	<defs/>
	<path id="Vector" d="M4.06 11.58C9.51 11.58 12.49 7.07 12.49 3.15C12.49 3.03 12.49 2.9 12.48 2.77C13.06 2.35 13.56 1.83 13.96 1.24C13.42 1.48 12.84 1.63 12.26 1.7C12.88 1.33 13.34 0.75 13.56 0.06C12.98 0.41 12.34 0.65 11.68 0.78C11.23 0.31 10.64 -0.01 10 -0.11C9.35 -0.22 8.69 -0.11 8.12 0.2C7.54 0.51 7.09 0.99 6.82 1.59C6.55 2.18 6.48 2.85 6.63 3.48C5.45 3.42 4.3 3.12 3.25 2.59C2.19 2.05 1.26 1.3 0.52 0.39C0.14 1.04 0.03 1.81 0.2 2.55C0.37 3.28 0.81 3.92 1.44 4.34C0.97 4.33 0.51 4.2 0.09 3.97L0.09 4.01C0.09 4.7 0.33 5.36 0.76 5.89C1.2 6.42 1.8 6.78 2.47 6.92C2.04 7.04 1.58 7.05 1.14 6.97C1.32 7.56 1.69 8.07 2.19 8.44C2.69 8.81 3.28 9.01 3.9 9.03C2.85 9.85 1.56 10.3 0.22 10.3C-0.02 10.3 -0.25 10.28 -0.49 10.25C0.87 11.12 2.45 11.58 4.06 11.58Z" fill="#FFFFFF" fill-opacity="1.000000" fill-rule="nonzero"/>
</svg>
