<?xml version="1.0" encoding="utf-8"?><svg xmlns="http://www.w3.org/2000/svg" xmlns:xlink="http://www.w3.org/1999/xlink"><symbol viewBox="0 0 21 6" id="arrow" xmlns="http://www.w3.org/2000/svg"><path d="M18.79 1.99 16.81.02a.513.513 0 0 1 0-.71c.2-.2.51-.2.71 0l2.83 2.83c.2.2.2.51 0 .71l-2.83 2.83c-.2.19-.51.19-.71 0a.513.513 0 0 1 0-.71l1.98-1.98H0v-1h18.79z" fill-rule="evenodd"/></symbol><symbol viewBox="0 0 24 24" id="close" xmlns="http://www.w3.org/2000/svg"><path d="M10.03 8.97a.75.75 0 0 0-1.06 1.06L10.94 12l-1.97 1.97a.75.75 0 1 0 1.06 1.06L12 13.06l1.97 1.97a.75.75 0 0 0 1.06-1.06L13.06 12l1.97-1.97a.75.75 0 1 0-1.06-1.06L12 10.94l-1.97-1.97z"/><path clip-rule="evenodd" d="M12.057 1.25h-.114c-2.309 0-4.118 0-5.53.19-1.444.194-2.584.6-3.479 1.494-.895.895-1.3 2.035-1.494 3.48-.19 1.411-.19 3.22-.19 5.529v.114c0 2.309 0 4.118.19 5.53.194 1.444.6 2.584 1.494 3.479.895.895 2.035 1.3 3.48 1.494 1.411.19 3.22.19 5.529.19h.114c2.309 0 4.118 0 5.53-.19 1.444-.194 2.584-.6 3.479-1.494.895-.895 1.3-2.035 1.494-3.48.19-1.411.19-3.22.19-5.529v-.114c0-2.309 0-4.118-.19-5.53-.194-1.444-.6-2.584-1.494-3.479-.895-.895-2.035-1.3-3.48-1.494-1.411-.19-3.22-.19-5.529-.19zM3.995 3.995c.57-.57 1.34-.897 2.619-1.069 1.3-.174 3.008-.176 5.386-.176s4.086.002 5.386.176c1.279.172 2.05.5 2.62 1.069.569.57.896 1.34 1.068 2.619.174 1.3.176 3.008.176 5.386s-.002 4.086-.176 5.386c-.172 1.279-.5 2.05-1.069 2.62-.57.569-1.34.896-2.619 1.068-1.3.174-3.008.176-5.386.176s-4.086-.002-5.386-.176c-1.279-.172-2.05-.5-2.62-1.069-.569-.57-.896-1.34-1.068-2.619-.174-1.3-.176-3.008-.176-5.386s.002-4.086.176-5.386c.172-1.279.5-2.05 1.069-2.62z"/></symbol><symbol viewBox="0 0 12 20" id="cocktails" xmlns="http://www.w3.org/2000/svg"><path d="M5 13.91V18H2v2h8v-2H7v-4.09c1.39-.24 2.66-.96 3.58-2.05A6.062 6.062 0 0 0 12 8V0H0v8a5.997 5.997 0 0 0 5 5.91zM2 2h8v4H2V2z"/></symbol><symbol viewBox="0 0 16 26" id="cofe" xmlns="http://www.w3.org/2000/svg"><path d="M15 7.14c.02-.14.01-.29-.03-.43-.04-.13-.11-.26-.2-.37-.1-.11-.22-.2-.35-.26-.13-.05-.28-.08-.42-.08V4a1 1 0 0 0-.3-.71A.967.967 0 0 0 13 3h-2v-.59l.71-.7c.18-.19.29-.44.29-.71 0-.27-.11-.52-.29-.71C11.52.1 11.26 0 11 0c-.27 0-.53.1-.71.29l-1 1c-.1.09-.17.2-.22.33-.05.12-.07.25-.07.38v1H2a.99.99 0 0 0-1 1v2a.99.99 0 0 0-.42.09c-.13.05-.25.14-.34.25-.1.11-.17.24-.21.37-.04.14-.05.29-.02.43l2 13.93V24c0 .26.1.52.29.71.19.18.44.29.71.29h9a1.009 1.009 0 0 0 1-1v-2.93L15 7.14zM2.15 8h10.7l-1.72 12H3.87L2.15 8zM3 5h9v1H3V5zm8 18H4v-1h7v1z"/></symbol><symbol viewBox="0 0 15 14" id="facebook" xmlns="http://www.w3.org/2000/svg"><path d="M14.44 6.72c0-3.99-3.23-7.23-7.22-7.23C3.23-.51 0 2.73 0 6.72c0 3.6 2.64 6.59 6.09 7.13V8.8H4.25V6.72h1.84v-1.6c0-1.81 1.08-2.81 2.73-2.81.79 0 1.61.15 1.61.15v1.77h-.91c-.89 0-1.17.56-1.17 1.13v1.36h2l-.32 2.08H8.35v5.05a7.22 7.22 0 0 0 6.09-7.13z"/></symbol><symbol viewBox="0 0 25 22" id="fast_food" xmlns="http://www.w3.org/2000/svg"><path d="M16.4 21.15v-3.38c0-.23-.08-.44-.23-.6a.73.73 0 0 0-.55-.25H.78c-.21 0-.41.09-.56.25-.14.16-.22.37-.22.6v3.38c0 .22.08.44.22.6.15.16.35.25.56.25h14.84c.21 0 .41-.09.55-.25.15-.16.23-.38.23-.6zm-1.56-.85H1.56v-1.69h13.28v1.69zm-12.5-5.91a.72.72 0 0 0-.55.24c-.15.16-.23.38-.23.6 0 .22.08.44.23.6.14.16.34.25.55.25h11.72c.2 0 .4-.09.55-.25.15-.16.23-.38.23-.6 0-.22-.08-.44-.23-.6a.751.751 0 0 0-.55-.24H2.34zm-1.56-.85h14.84c.21 0 .41-.09.55-.25.15-.16.23-.37.23-.6 0-.06-.09-5.92-8.2-5.92S0 12.63 0 12.69c0 .23.08.44.22.6.15.16.35.25.56.25zM8.2 8.47c4.71 0 6.08 2.14 6.48 3.38H1.72c.4-1.24 1.76-3.38 6.48-3.38zm16.01-3.39h-4.02L19.52.72a.937.937 0 0 0-.11-.32.69.69 0 0 0-.21-.24.619.619 0 0 0-.28-.14c-.1-.03-.2-.03-.31-.01-.1.01-.2.06-.28.12-.09.06-.17.13-.23.23a.79.79 0 0 0-.12.3c-.02.11-.02.22-.01.33l.63 4.09h-.64c-.1 0-.21.03-.31.07a.79.79 0 0 0-.25.2c-.08.08-.13.18-.17.29-.04.11-.05.22-.05.34l.78 15.22c.02.21.1.42.25.56.14.15.34.24.54.24h4.68c.2 0 .39-.09.54-.24.14-.14.23-.35.24-.56l.78-15.22a.963.963 0 0 0-.04-.34.86.86 0 0 0-.43-.49.783.783 0 0 0-.31-.07zM22.69 20.3h-3.21l-.69-13.53h4.6l-.7 13.53z"/></symbol><symbol viewBox="0 0 13 31" id="feature" xmlns="http://www.w3.org/2000/svg"><path d="M0 4h13v16H6.5C2.91 20 0 17.08 0 13.5V4zm8 19h5v8h-2.5C9.11 31 8 29.88 8 28.5V23z" fill-rule="evenodd"/><rect rx="1"/></symbol><symbol viewBox="0 0 25 25" id="grill" xmlns="http://www.w3.org/2000/svg"><path d="m19.71 16.76-2.45-1.92c.17-.73.01-1.43-.48-2.03-.98-1.21-1.19-2.64-1.42-4.16-.33-2.19-.7-4.67-3.45-6.84C10.38.6 8.82 0 7.26 0 4.38 0 2.57 2.04 2.5 2.12 2.38 2.25-.46 5.46.06 9.28c.32 2.33 1.81 4.35 4.43 6.01l.05.03c.21.1 5.2 2.57 6.69 3.03.67.21 1.22.31 1.73.31.45 0 .86-.08 1.24-.23l2.75 1.73c-.11.83-.15 2.65 1.39 3.5.4.22.85.33 1.3.34.65 0 1.29-.24 1.79-.69.61-.56.89-1.33.79-2.11.49-.12 1.11-.38 1.48-.94.24-.36.46-1 .12-1.95-.71-1.94-2.85-1.9-4.11-1.55zm-4.65-.65-.06.09c-.7 1.17-1.5 1.3-2.04 1.3-.39 0-.84-.08-1.39-.25-1.35-.42-6.09-2.76-6.49-2.96-2.3-1.46-3.61-3.19-3.88-5.16-.45-3.28 2.13-6.2 2.16-6.24.02-.01 1.56-1.73 3.9-1.73 1.3 0 2.62.52 3.93 1.56 2.4 1.89 2.7 3.94 3.03 6.11.24 1.6.49 3.26 1.66 4.71.24.29.49.76.07 1.54-.31.56-.81.97-.81.97l-.08.06zm7.68 3.5c-.26.4-1.02.52-1.26.53-.09.01-.18.03-.27.08-.08.05-.14.11-.19.19-.05.08-.08.17-.09.27-.01.09 0 .18.04.27.33.79-.11 1.31-.31 1.49-.4.37-1.1.57-1.76.2-1.21-.66-.76-2.6-.75-2.62.03-.12.02-.24-.02-.36a.608.608 0 0 0-.23-.27l-2.64-1.66c.26-.25.49-.54.68-.84.32-.29.6-.61.84-.96l2.45 1.93c.08.06.17.1.26.12.1.01.19 0 .29-.03.09-.03 2.39-.81 2.95.76.15.39.15.7.01.9z"/><path d="M17.26 14.84c.17-.73.01-1.43-.48-2.03-.98-1.21-1.19-2.64-1.42-4.16-.33-2.19-.7-4.67-3.45-6.84C10.38.6 8.82 0 7.26 0 4.38 0 2.57 2.04 2.5 2.12 2.38 2.25-.46 5.46.06 9.28c.32 2.33 1.81 4.35 4.43 6.01l.05.03c.21.1 5.2 2.57 6.69 3.03.67.21 1.22.31 1.73.31.45 0 .86-.08 1.24-.23l2.75 1.73c-.11.83-.15 2.65 1.39 3.5.4.22.85.33 1.3.34.65 0 1.29-.24 1.79-.69.61-.56.89-1.33.79-2.11.49-.12 1.11-.38 1.48-.94.24-.36.46-1 .12-1.95-.71-1.94-2.85-1.9-4.11-1.55l-2.45-1.92zm2.56 1.37q2.09-.51 3.29.3.78.53 1.18 1.63.36 1 .11 1.81-.1.31-.29.59-.07.11-.15.21-.45.54-1.22.81 0 .49-.15.92-.23.66-.82 1.2-.45.4-.97.6-.54.22-1.16.22-.41-.01-.79-.1-.39-.1-.75-.3-.66-.36-1.06-.92-.77-1.04-.62-2.76l-2.28-1.44q-.56.18-1.18.18-.82 0-1.88-.33-1.65-.51-6.76-3.07h-.01l-.08-.04-.01-.01Q.75 13.52-.17 10.53q-.18-.57-.27-1.18-.18-1.32.03-2.58.43-2.63 2.54-4.98Q3.03.75 4.16.18 5.54-.5 7.26-.5h.34q2.35.13 4.61 1.91.12.09.22.18 2.72 2.31 3.42 6.99.43 2.81 1.32 3.92.46.57.6 1.22.1.44.04.91l2.01 1.58zm-4.76-.1-.06.09c-.7 1.17-1.5 1.3-2.04 1.3-.39 0-.84-.08-1.39-.25-1.35-.42-6.09-2.76-6.49-2.96-2.3-1.46-3.61-3.19-3.88-5.16-.45-3.28 2.13-6.2 2.16-6.24.02-.01 1.56-1.73 3.9-1.73 1.3 0 2.62.52 3.93 1.56 2.4 1.89 2.7 3.94 3.03 6.11.24 1.6.49 3.26 1.66 4.71.24.29.49.76.07 1.54-.31.56-.81.97-.81.97l-.08.06zm-.24-.45-.14.12-.1.16q-.47.77-1.11.98-.24.08-.51.08-.5 0-1.24-.23-1.31-.41-6.4-2.92-2.99-1.9-3.54-4.36-.05-.21-.08-.43-.13-.92 0-1.81.3-2.11 2.03-4.02.67-.76 1.52-1.15.9-.42 2.01-.42 1.78 0 3.62 1.45 2.24 1.77 2.85 5.79.5 3.4 1.77 4.96.1.13.14.28.08.31-.13.7-.25.45-.69.82zm6.64 3.98v.01q-.13 0-.25.04-.13.03-.25.1-.11.06-.2.15-.1.09-.17.21-.07.11-.11.23-.04.12-.05.25-.01.14.01.26.02.13.07.25.13.31.06.56-.06.2-.25.37-.26.24-.55.28-.3.04-.63-.15-.2-.11-.34-.27-.47-.57-.17-1.79.05-.17.04-.34-.02-.16-.08-.32-.07-.17-.17-.3-.11-.12-.26-.21l-2.13-1.35q.16-.2.3-.41.22-.2.42-.42.06-.08.12-.15l2.05 1.61q.12.1.26.15.11.05.23.07.13.02.27.01.13-.01.26-.05 1.41-.51 2.01-.02.21.17.31.47.13.35.07.46-.19.27-.87.3zm-4.98-3.31c.1-.13.2-.26.3-.4l.39.31 2.06 1.62c.08.06.17.1.26.12.1.01.19 0 .29-.03.09-.03 2.39-.81 2.95.76.15.39.15.7.01.9-.26.4-1.02.52-1.26.53-.09.01-.18.03-.27.08-.08.05-.14.11-.19.19-.05.08-.08.17-.09.27-.01.09 0 .18.04.27.33.79-.11 1.31-.31 1.49-.4.37-1.1.57-1.76.2-1.21-.66-.76-2.6-.75-2.62.03-.12.02-.24-.02-.36a.608.608 0 0 0-.23-.27L15.7 18l-.44-.27c.13-.12.24-.25.35-.38.12-.15.23-.3.33-.46.19-.18.37-.36.54-.56z" fill-rule="evenodd"/></symbol><symbol viewBox="0 0 14 14" id="instagram" xmlns="http://www.w3.org/2000/svg"><path d="M6.25.79c1.93 0 2.16.01 2.92.05.71.03 1.09.15 1.34.24.34.13.58.29.83.54.25.26.41.5.54.83.1.26.22.64.25 1.34.03.76.04.99.04 2.92s-.01 2.16-.04 2.92c-.03.7-.15 1.08-.25 1.34-.13.33-.29.58-.54.83-.25.25-.49.41-.83.54-.25.09-.64.21-1.34.24-.76.04-.99.05-2.92.05s-2.15-.01-2.91-.05c-.71-.03-1.09-.15-1.34-.24-.34-.13-.58-.29-.83-.54-.26-.26-.41-.5-.54-.83-.1-.26-.22-.64-.25-1.34-.03-.76-.04-.99-.04-2.92s.01-2.16.04-2.92c.03-.7.15-1.08.25-1.34.13-.33.29-.58.54-.83.25-.25.49-.41.83-.54.25-.09.63-.21 1.34-.24C4.1.8 4.32.79 6.25.79zm0-1.3c-1.96 0-2.2.01-2.97.05-.77.03-1.3.15-1.75.33C1.05.06.65.3.25.71c-.41.4-.65.8-.84 1.27-.18.46-.3.99-.34 1.76-.03.77-.04 1.02-.04 2.98s.01 2.2.04 2.97c.04.77.16 1.3.34 1.75.19.48.43.88.84 1.29.4.4.8.64 1.27.83.46.17.99.3 1.76.33.77.04 1.01.05 2.97.05 1.96 0 2.21-.01 2.98-.05.77-.03 1.29-.16 1.75-.33a3.658 3.658 0 0 0 2.11-2.11c.18-.46.3-.99.34-1.76.03-.77.04-1.01.04-2.97 0-1.96-.01-2.21-.04-2.98-.04-.77-.16-1.29-.34-1.75-.18-.48-.42-.88-.83-1.28-.4-.4-.8-.65-1.27-.84-.46-.17-.99-.3-1.76-.33-.77-.04-1.01-.05-2.98-.05z"/><path d="M6.25 3.01c-2.04 0-3.71 1.66-3.71 3.71 0 2.04 1.67 3.71 3.71 3.71 2.05 0 3.71-1.67 3.71-3.71 0-2.05-1.66-3.71-3.71-3.71zm0 6.11c-1.32 0-2.4-1.08-2.4-2.4a2.41 2.41 0 0 1 2.4-2.41c1.33 0 2.41 1.08 2.41 2.41 0 1.32-1.08 2.4-2.41 2.4zm4.73-6.26c0 .48-.39.87-.87.87s-.86-.39-.86-.87.38-.87.86-.87.87.39.87.87z"/></symbol><symbol viewBox="0 0 14 14" id="linkedIn" xmlns="http://www.w3.org/2000/svg"><path d="M12.93-.51H.62C.03-.51-.45-.04-.45.53v12.36c0 .58.48 1.05 1.07 1.05h12.31c.59 0 1.07-.47 1.07-1.04V.53c0-.57-.48-1.04-1.07-1.04zM3.84 11.8H1.69V4.91h2.15v6.89zM2.76 3.97a1.24 1.24 0 1 1 0-2.48c.69 0 1.25.55 1.25 1.24 0 .68-.56 1.24-1.25 1.24zm9.1 7.83H9.72V8.45c0-.8-.02-1.83-1.12-1.83-1.11 0-1.28.87-1.28 1.77v3.41H5.18V4.91h2.06v.94h.02c.29-.54.99-1.11 2.03-1.11 2.17 0 2.57 1.42 2.57 3.28v3.78z"/></symbol><symbol viewBox="0 0 60 59" id="play" xmlns="http://www.w3.org/2000/svg"><path d="M30 59C13.43 59 0 45.56 0 29 0 12.43 13.43-1 30-1c16.56 0 30 13.43 30 30-.02 16.56-13.44 29.98-30 30zm12.63-30.96c-.21-.42-.55-.76-.96-.96v-.01L24.52 18.5c-1.05-.53-2.34-.1-2.87.95-.15.31-.23.64-.23.97v17.15c0 1.18.96 2.14 2.15 2.14.33 0 .66-.08.95-.23l17.15-8.57c1.06-.52 1.49-1.81.96-2.87z"/></symbol><symbol viewBox="0 0 20 25" id="quafe" xmlns="http://www.w3.org/2000/svg"><path d="M19.2 11.66h-2.41v-6.8a.703.703 0 0 0-.06-.32.77.77 0 0 0-.17-.27.677.677 0 0 0-.26-.18c-.1-.04-.2-.06-.3-.06h-.4V.83c0-.22-.09-.43-.24-.59a.763.763 0 0 0-.57-.24c-.21 0-.41.08-.56.24-.15.16-.23.37-.23.59v3.2h-1.61V.83c0-.22-.08-.43-.23-.59A.757.757 0 0 0 11.6 0c-.22 0-.42.08-.57.24-.15.16-.24.37-.24.59v3.2H9.2V.83c0-.22-.09-.43-.24-.59A.763.763 0 0 0 8.39 0c-.21 0-.41.08-.56.24-.15.16-.23.37-.23.59v3.2H6V.83C6 .61 5.91.4 5.76.24A.757.757 0 0 0 5.2 0c-.22 0-.42.08-.57.24-.15.16-.24.37-.24.59v3.2H4c-.11 0-.21.02-.31.06-.1.04-.19.1-.26.18a.77.77 0 0 0-.17.27c-.04.1-.07.21-.06.32v6.8H.79c-.21 0-.41.09-.56.25-.15.15-.23.36-.23.59v11.66c-.01.11.02.22.06.32.04.1.09.19.17.27.07.08.16.14.26.18.1.04.2.07.3.07H19.2c.1 0 .2-.03.3-.07.1-.04.19-.1.26-.18a.77.77 0 0 0 .17-.27c.05-.1.07-.21.07-.32V12.5a.876.876 0 0 0-.24-.59.767.767 0 0 0-.56-.25zM4.79 5.69H15.2v5.97H4.79V5.69zM1.6 13.33h16.79v1.8c-.51.19-.96.52-1.31.96-.36.4-.55.57-.96.57-.4 0-.58-.17-.96-.57-.24-.34-.56-.62-.93-.81-.36-.19-.77-.28-1.17-.28-.41 0-.82.09-1.18.28-.37.19-.69.47-.93.81-.37.4-.56.57-.96.57-.41 0-.59-.17-.95-.57a2.71 2.71 0 0 0-.94-.81 2.542 2.542 0 0 0-2.36 0c-.36.19-.68.47-.93.81-.37.4-.54.57-.95.57-.41 0-.59-.17-.95-.57-.35-.44-.8-.77-1.31-.96v-1.8zm16.79 10H1.6v-6.25c.04.04.09.1.15.16.24.34.56.61.93.8.37.19.77.29 1.18.29.41 0 .81-.1 1.18-.29.36-.19.68-.46.93-.8.37-.39.55-.58.95-.58.41 0 .6.19.95.59.25.33.57.61.94.79.37.19.77.29 1.18.29.41 0 .81-.1 1.17-.29.37-.18.69-.46.94-.79.37-.4.54-.59.95-.59.42 0 .59.19.96.59.25.33.57.61.94.79.36.19.76.29 1.17.29.41 0 .81-.1 1.18-.29.37-.18.69-.46.94-.79.05-.07.11-.13.15-.18v6.26z" fill-rule="evenodd"/></symbol><symbol viewBox="0 0 30 30" id="search" xmlns="http://www.w3.org/2000/svg"><path d="m25.358 23.793 4.33 4.328a1.109 1.109 0 0 1-1.567 1.568l-4.33-4.33a14.413 14.413 0 1 1 1.567-1.569v.003zm-10.945 2.816a12.196 12.196 0 1 0 0-24.391 12.196 12.196 0 0 0 0 24.39z"/></symbol><symbol viewBox="0 0 21 28" id="snacks" xmlns="http://www.w3.org/2000/svg"><path d="M20.08 4.28V.69c0-.16-.04-.31-.13-.45a.898.898 0 0 0-.34-.33.892.892 0 0 0-.45-.12c-.17 0-.32.04-.46.12l-1.06.63-1.06-.63a.878.878 0 0 0-.47-.13c-.17 0-.33.05-.47.13l-1.06.63-1.05-.63a.912.912 0 0 0-.48-.13c-.16 0-.33.04-.47.13l-1.05.63-1.06-.63A.854.854 0 0 0 10-.22c-.16 0-.33.04-.47.13L8.48.54 7.42-.09a.977.977 0 0 0-.47-.13c-.17 0-.33.05-.47.13L5.42.54 4.37-.09a.878.878 0 0 0-.47-.13c-.17 0-.33.04-.47.13L2.37.54 1.32-.09a.93.93 0 0 0-.46-.12.93.93 0 0 0-.93.9v3.59a47.494 47.494 0 0 0 0 18.48v3.59c0 .16.05.31.13.45s.2.25.34.33c.14.08.3.12.46.12.16 0 .32-.04.46-.12l1.06-.63 1.05.63c.15.09.31.13.48.13.16 0 .33-.04.47-.13l1.05-.63 1.06.63c.14.09.3.13.47.13.17 0 .33-.04.47-.13l1.06-.63 1.05.63c.14.09.31.13.47.13.17 0 .33-.04.47-.13l1.06-.63 1.06.63c.14.08.3.13.47.13.16 0 .33-.05.47-.13l1.05-.63 1.06.63c.14.09.3.13.47.13.16 0 .33-.04.47-.13l1.05-.63 1.06.63c.14.08.29.12.45.12.17 0 .32-.04.46-.12.14-.08.26-.19.34-.33.09-.14.13-.29.13-.45v-3.59c1.22-6.1 1.22-12.38 0-18.48zM1.76 2.31l.14.08a.863.863 0 0 0 .94 0l1.06-.63 1.05.63a.863.863 0 0 0 .94 0l1.06-.63 1.06.63c.14.09.3.13.47.13.16 0 .33-.04.47-.13L10 1.76l1.06.63a.863.863 0 0 0 .94 0l1.05-.63 1.06.63c.14.09.31.14.47.14.17 0 .33-.05.48-.14l1.05-.63 1.06.64c.14.08.3.13.47.13.16 0 .33-.05.47-.13l.14-.09v1.13H1.76V2.31zm16.49 22.42-.13-.08a.923.923 0 0 0-.48-.14c-.16 0-.33.05-.47.14l-1.05.63-1.06-.63a.863.863 0 0 0-.94 0l-1.05.63-1.06-.63a.878.878 0 0 0-.47-.13c-.17 0-.33.04-.47.13l-1.06.63-1.05-.63a.863.863 0 0 0-.94 0l-1.06.63-1.06-.63a.854.854 0 0 0-.47-.13c-.16 0-.33.04-.47.13l-1.05.63-1.06-.64c-.15-.08-.31-.13-.47-.13-.17 0-.33.05-.48.13l-.14.09V23.6h16.49v1.13zm.16-2.96H1.6c-1-5.46-1-11.04 0-16.49h16.81a45.25 45.25 0 0 1 0 16.49z"/><path d="M14.07 10.82c-.27-.3-.6-.54-.97-.71-.37-.17-.77-.25-1.17-.25h-.43c-.2 0-.39.02-.58.06V8.48a.94.94 0 0 0-.26-.65.94.94 0 0 0-.65-.26c-.25 0-.48.09-.65.26-.17.18-.27.41-.27.65v1.44a2.76 2.76 0 0 0-.57-.06h-.43c-.41 0-.81.08-1.18.25-.37.17-.7.41-.97.71-.26.31-.47.67-.59 1.05-.12.39-.15.8-.1 1.2l.43 3.44c.09.69.42 1.33.95 1.79.52.46 1.19.72 1.89.72.52 0 1.04-.15 1.49-.43.44.28.96.43 1.49.43.69 0 1.37-.26 1.89-.72.52-.46.86-1.1.95-1.79l.43-3.44a2.876 2.876 0 0 0-.7-2.25zm-1.12 2.03-.43 3.43c-.03.25-.16.48-.34.65-.19.16-.43.25-.68.25-.15 0-.3-.03-.44-.1-.13-.06-.25-.15-.35-.27a.812.812 0 0 0-.31-.24.924.924 0 0 0-.39-.09.86.86 0 0 0-.39.09.93.93 0 0 0-.32.24.85.85 0 0 1-.35.27c-.13.07-.28.1-.43.1-.25 0-.49-.09-.68-.25-.19-.17-.31-.4-.34-.65l-.43-3.43a.893.893 0 0 1 .04-.43.95.95 0 0 1 .21-.38c.09-.11.21-.2.34-.26.14-.06.28-.09.43-.09h.43c.15 0 .3.03.43.1.14.06.26.16.35.27.09.1.2.18.32.23a.86.86 0 0 0 .77 0c.12-.05.23-.13.32-.23.1-.11.22-.21.35-.27.14-.07.29-.1.44-.1h.43a1.023 1.023 0 0 1 .77.35c.09.11.17.24.21.38.04.14.06.28.04.43z"/></symbol><symbol viewBox="0 0 14 12" id="twitter" xmlns="http://www.w3.org/2000/svg"><path d="M4.06 11.58c5.45 0 8.43-4.51 8.43-8.43 0-.12 0-.25-.01-.38.58-.42 1.08-.94 1.48-1.53-.54.24-1.12.39-1.7.46.62-.37 1.08-.95 1.3-1.64-.58.35-1.22.59-1.88.72-.45-.47-1.04-.79-1.68-.89-.65-.11-1.31 0-1.88.31-.58.31-1.03.79-1.3 1.39a2.93 2.93 0 0 0-.19 1.89 8.443 8.443 0 0 1-3.38-.89A8.473 8.473 0 0 1 .52.39C.14 1.04.03 1.81.2 2.55c.17.73.61 1.37 1.24 1.79a2.94 2.94 0 0 1-1.35-.37v.04c0 .69.24 1.35.67 1.88.44.53 1.04.89 1.71 1.03-.43.12-.89.13-1.33.05.18.59.55 1.1 1.05 1.47.5.37 1.09.57 1.71.59A5.971 5.971 0 0 1 .22 10.3c-.24 0-.47-.02-.71-.05 1.36.87 2.94 1.33 4.55 1.33z"/></symbol></svg>